<svg id="Layer_1" data-name="Layer 1" xmlns="http://www.w3.org/2000/svg" viewBox="0 0 950 623.44"><defs><style>.cls-1{fill:#e0e0e0;}.cls-1,.cls-2,.cls-3,.cls-4,.cls-7,.cls-9{stroke:#231f20;}.cls-1,.cls-11,.cls-2,.cls-3,.cls-4,.cls-7,.cls-9{stroke-miterlimit:10;}.cls-1,.cls-4{stroke-width:1.15px;}.cls-2,.cls-3,.cls-7{fill:#f2f3f2;}.cls-2{stroke-width:0.66px;}.cls-3{stroke-width:0.67px;}.cls-4{fill:#a09f9f;}.cls-5,.cls-8{font-size:12px;}.cls-10,.cls-5,.cls-8{fill:#231f20;}.cls-5{font-family:Arial-BoldMT, Arial;font-weight:700;}.cls-6{letter-spacing:-0.02em;}.cls-8{font-family:ArialMT, Arial;}.cls-11,.cls-9{fill:none;}.cls-11{stroke:#181818;}.cls-12{fill:#181818;}.cls-13{letter-spacing:-0.06em;}.cls-14{letter-spacing:-0.07em;}</style></defs><rect class="cls-1" x="799.28" y="488.77" width="145.38" height="123.85"/><rect class="cls-2" x="922.37" y="494.31" width="19.31" height="28.36"/><rect class="cls-3" x="916.49" y="501.11" width="11.77" height="6.02"/><rect class="cls-3" x="916.49" y="511.15" width="11.77" height="6.02"/><rect class="cls-4" x="8.76" y="12.44" width="145.38" height="123.85"/><rect class="cls-2" x="131.86" y="17.98" width="19.31" height="28.36"/><rect class="cls-3" x="125.97" y="24.78" width="11.77" height="6.02"/><rect class="cls-3" x="125.97" y="34.82" width="11.77" height="6.02"/><text class="cls-5" transform="translate(61.38 32.36)">AP<tspan class="cls-6" x="16.67" y="0">P</tspan><tspan x="-21.77" y="14.4">Onboarding</tspan></text><rect class="cls-1" x="494.3" y="12.44" width="145.38" height="123.85"/><rect class="cls-2" x="617.4" y="17.98" width="19.31" height="28.36"/><rect class="cls-3" x="611.51" y="24.78" width="11.77" height="6.02"/><rect class="cls-3" x="611.51" y="34.82" width="11.77" height="6.02"/><text class="cls-5" transform="translate(532.26 32.36)">AP<tspan class="cls-6" x="16.67" y="0">P</tspan><tspan x="24.46" y="0" xml:space="preserve"> LCM</tspan></text><polygon class="cls-7" points="396.1 80.07 238.77 80.07 255.44 60.23 412.77 60.23 396.1 80.07"/><text class="cls-5" transform="translate(310.77 72.85)">Rest</text><text class="cls-8" transform="translate(227.49 26.52)">AP<tspan class="cls-6" x="16.01" y="0">P</tspan><tspan x="23.79" y="0" xml:space="preserve"> LCM is notified when an app is</tspan><tspan x="32.57" y="14.4">successfully onboarded</tspan></text><line class="cls-9" x1="154.15" y1="70.15" x2="238.24" y2="70.15"/><polygon class="cls-10" points="236.26 73.06 247.1 70.15 236.26 67.25 236.26 73.06"/><line class="cls-9" x1="405.8" y1="70.15" x2="494.91" y2="70.15"/><rect class="cls-1" x="494.3" y="176.39" width="145.38" height="123.85"/><rect class="cls-2" x="617.4" y="181.93" width="19.31" height="28.36"/><rect class="cls-3" x="611.51" y="188.73" width="11.77" height="6.02"/><rect class="cls-3" x="611.51" y="198.77" width="11.77" height="6.02"/><text class="cls-5" transform="translate(530.25 196.32)">AD<tspan class="cls-6" x="17.33" y="0">P</tspan><tspan x="25.12" y="0" xml:space="preserve"> Helm</tspan><tspan x="4.89" y="14.4">Registry</tspan></text><rect class="cls-1" x="494.3" y="340.35" width="145.38" height="123.85"/><rect class="cls-2" x="617.4" y="345.89" width="19.31" height="28.36"/><rect class="cls-3" x="611.51" y="352.69" width="11.77" height="6.02"/><rect class="cls-3" x="611.51" y="362.73" width="11.77" height="6.02"/><text class="cls-5" transform="translate(516.92 360.27)">AD<tspan class="cls-6" x="17.33" y="0">P</tspan><tspan x="25.12" y="0" xml:space="preserve"> Container</tspan><tspan x="18.22" y="14.4">Registry</tspan></text><rect class="cls-1" x="726.84" y="488.77" width="145.38" height="123.85"/><rect class="cls-2" x="849.93" y="494.31" width="19.31" height="28.36"/><rect class="cls-3" x="844.05" y="501.11" width="11.77" height="6.02"/><rect class="cls-3" x="844.05" y="511.15" width="11.77" height="6.02"/><rect class="cls-1" x="655.77" y="489.52" width="145.38" height="123.85"/><rect class="cls-2" x="778.86" y="495.06" width="19.31" height="28.36"/><rect class="cls-3" x="772.98" y="501.86" width="11.77" height="6.02"/><rect class="cls-3" x="772.98" y="511.9" width="11.77" height="6.02"/><line class="cls-9" x1="81.46" y1="136.28" x2="81.46" y2="558.59"/><line class="cls-9" x1="81.46" y1="558.59" x2="646.91" y2="558.59"/><polygon class="cls-10" points="644.93 561.5 655.77 558.59 644.93 555.69 644.93 561.5"/><line class="cls-11" x1="81.46" y1="399.73" x2="485.44" y2="399.73"/><polygon class="cls-12" points="483.46 402.64 494.3 399.73 483.46 396.83 483.46 402.64"/><line class="cls-11" x1="81.46" y1="245.95" x2="485.44" y2="245.95"/><polygon class="cls-12" points="483.46 248.86 494.3 245.95 483.46 243.05 483.46 248.86"/><text class="cls-8" transform="translate(264.03 236.19)">Helm Charts Stored</text><text class="cls-8" transform="translate(272.89 391.81)">Images Stored</text><text class="cls-8" transform="translate(285.85 530.87)">Other Services<tspan x="-43.13" y="14.4">Example: </tspan><tspan class="cls-6" x="10.23" y="14.4">W</tspan><tspan x="21.34" y="14.4">orkflo</tspan><tspan class="cls-13" x="50.68" y="14.4">w</tspan><tspan x="58.69" y="14.4">, Polic</tspan><tspan class="cls-14" x="91.37" y="14.4">y</tspan><tspan x="96.47" y="14.4">, KPI</tspan></text></svg>