<svg id="Layer_1" data-name="Layer 1" xmlns="http://www.w3.org/2000/svg" width="310px" height="450px" viewBox="0 0 165.13 201.84"><defs><style>.cls-1{fill:#e0e0e0;stroke:#e0e0e0;stroke-width:0.84px;}.cls-1,.cls-11,.cls-3,.cls-4,.cls-5,.cls-6,.cls-7,.cls-8,.cls-9{stroke-miterlimit:10;}.cls-2,.cls-8{fill:#f2f3f2;}.cls-3,.cls-4,.cls-5,.cls-6,.cls-7{fill:none;}.cls-3,.cls-4,.cls-5,.cls-6,.cls-7,.cls-8{stroke:#231f20;stroke-width:0.89px;}.cls-4{stroke-dasharray:3.65 3.65 3.65 3.65;}.cls-5{stroke-dasharray:3.65 3.65 3.65 3.65 3.65 3.65;}.cls-6{stroke-dasharray:3.41 3.41 3.41 3.41;}.cls-7{stroke-dasharray:3.41 3.41 3.41 3.41 3.41 3.41;}.cls-11,.cls-9{fill:#a09f9f;stroke:#a09f9f;}.cls-9{stroke-width:0.84px;}.cls-10{font-size:8.35px;fill:#231f20;font-family:ArialMT, Arial;}.cls-11{stroke-width:0.92px;}</style></defs><rect class="cls-1" x="11.63" y="6.96" width="148.02" height="188.78"/><rect class="cls-2" x="25.88" y="78.61" width="109.23" height="102.11"/><polyline class="cls-3" points="135.11 179.05 135.11 180.72 133.44 180.72"/><line class="cls-4" x1="129.79" y1="180.72" x2="117.01" y2="180.72"/><line class="cls-5" x1="115.19" y1="180.72" x2="29.38" y2="180.72"/><polyline class="cls-3" points="27.55 180.72 25.88 180.72 25.88 179.05"/><line class="cls-6" x1="25.88" y1="175.65" x2="25.88" y2="163.73"/><line class="cls-7" x1="25.88" y1="162.02" x2="25.88" y2="81.99"/><polyline class="cls-3" points="25.88 80.28 25.88 78.61 27.55 78.61"/><line class="cls-4" x1="31.2" y1="78.61" x2="43.98" y2="78.61"/><line class="cls-5" x1="45.81" y1="78.61" x2="131.62" y2="78.61"/><polyline class="cls-3" points="133.44 78.61 135.11 78.61 135.11 80.28"/><line class="cls-6" x1="135.11" y1="83.69" x2="135.11" y2="95.61"/><line class="cls-7" x1="135.11" y1="97.31" x2="135.11" y2="177.35"/><rect class="cls-8" x="35.38" y="84.93" width="109.23" height="102.11"/><rect class="cls-9" x="46.07" y="111.28" width="89.05" height="13.62"/><text class="cls-10" transform="translate(48.44 120.55)">Component Descriptor</text><rect class="cls-9" x="46.07" y="134.2" width="89.05" height="22.04"/><text class="cls-10" transform="translate(58.33 99.97)">App Components</text><text class="cls-10" transform="translate(71.15 147.56)">Package</text><rect class="cls-11" x="25.88" y="38.13" width="118.73" height="24.25"/><text class="cls-10" transform="translate(58.13 53.26)">AppDescriptor</text><text class="cls-10" transform="translate(62.56 17.82)">App Package<tspan x="10.46" y="13.36">(CSAR)</tspan></text></svg>